Seven-Heavy.ufo
<glyph name="plus" format="1">
  <advance width="684"/>
  <unicode hex="002B"/>
  <outline>
    <contour>
      <point x="82" y="298" type="line"/>
      <point x="82" y="354" type="line"/>
      <point x="311" y="354" type="line"/>
      <point x="311" y="595" type="line"/>
      <point x="373" y="595" type="line"/>
      <point x="373" y="354" type="line"/>
      <point x="601" y="354" type="line"/>
      <point x="601" y="298" type="line"/>
      <point x="373" y="298" type="line"/>
      <point x="373" y="56" type="line"/>
      <point x="311" y="56" type="line"/>
      <point x="311" y="298" type="line"/>
    </contour>
  </outline>
</glyph>
<glyph name="comma" format="1">
  <advance width="164"/>
  <unicode hex="002C"/>
  <outline>
    <contour>
      <point x="36" y="133" type="line"/>
      <point x="150" y="133" type="line"/>
      <point x="94" y="-114" type="line"/>
      <point x="18" y="-114" type="line"/>
    </contour>
  </outline>
</glyph>
<glyph name="period" format="1">
  <advance width="266"/>
  <unicode hex="002E"/>
  <outline>
    <contour>
      <point x="58" y="73" type="curve" smooth="yes"/>
      <point x="58" y="116"/>
      <point x="87" y="143"/>
      <point x="133" y="143" type="curve" smooth="yes"/>
      <point x="180" y="143"/>
      <point x="208" y="116"/>
      <point x="208" y="73" type="curve" smooth="yes"/>
      <point x="208" y="27"/>
      <point x="180" y="0"/>
      <point x="133" y="0" type="curve" smooth="yes"/>
      <point x="87" y="0"/>
      <point x="58" y="27"/>
    </contour>
  </outline>
</glyph>
<glyph name="zero" format="1">
  <advance width="757"/>
  <unicode hex="0030"/>
  <outline>
    <contour>
      <point x="380" y="794" type="curve" smooth="yes"/>
      <point x="222" y="794"/>
      <point x="166" y="686"/>
      <point x="166" y="440" type="curve" smooth="yes"/>
      <point x="166" y="186"/>
      <point x="222" y="86"/>
      <point x="380" y="86" type="curve" smooth="yes"/>
      <point x="535" y="86"/>
      <point x="593" y="186"/>
      <point x="593" y="440" type="curve" smooth="yes"/>
      <point x="593" y="694"/>
      <point x="535" y="794"/>
    </contour>
    <contour>
      <point x="379" y="900" type="curve" smooth="yes"/>
      <point x="594.687333798" y="900.0"/>
      <point x="735" y="756"/>
      <point x="735" y="440" type="curve" smooth="yes"/>
      <point x="735" y="124"/>
      <point x="594.687333798" y="-20.0"/>
      <point x="379" y="-20" type="curve" smooth="yes"/>
      <point x="161.778623478" y="-20.0"/>
      <point x="24" y="123"/>
      <point x="24" y="440" type="curve" smooth="yes"/>
      <point x="24" y="747"/>
      <point x="161.778623478" y="900.0"/>
    </contour>
  </outline>
</glyph>
<glyph name="four" format="1">
  <advance width="744"/>
  <unicode hex="0034"/>
  <outline>
    <contour>
      <point x="451" y="0" type="line"/>
      <point x="451" y="286" type="line"/>
      <point x="510" y="230" type="line"/>
      <point x="71" y="230" type="line"/>
      <point x="24" y="342" type="line"/>
      <point x="392" y="880" type="line"/>
      <point x="589" y="880" type="line"/>
      <point x="589" y="293" type="line"/>
      <point x="529" y="335" type="line"/>
      <point x="694" y="335" type="line"/>
      <point x="694" y="230" type="line"/>
      <point x="529" y="230" type="line"/>
      <point x="589" y="286" type="line"/>
      <point x="589" y="0" type="line"/>
    </contour>
    <contour>
      <point x="510" y="335" type="line"/>
      <point x="451" y="295" type="line"/>
      <point x="451" y="869" type="line"/>
      <point x="491" y="831" type="line"/>
      <point x="118" y="288" type="line"/>
      <point x="102" y="335" type="line"/>
    </contour>
  </outline>
</glyph>
<glyph name="nine" format="1">
  <advance width="744"/>
  <unicode hex="0039"/>
  <outline>
    <contour>
      <point x="609" y="493" type="line"/>
      <point x="568" y="379"/>
      <point x="478" y="316"/>
      <point x="344" y="316" type="curve" smooth="yes"/>
      <point x="158" y="316"/>
      <point x="32" y="415"/>
      <point x="32" y="612" type="curve" smooth="yes"/>
      <point x="32" y="790"/>
      <point x="167" y="900"/>
      <point x="361" y="900" type="curve" smooth="yes"/>
      <point x="568" y="900"/>
      <point x="686" y="774"/>
      <point x="686" y="601" type="curve" smooth="yes"/>
      <point x="686" y="323" type="line" smooth="yes"/>
      <point x="686" y="73"/>
      <point x="519" y="-20"/>
      <point x="337" y="-20" type="curve" smooth="yes"/>
      <point x="205" y="-20"/>
      <point x="126" y="18"/>
      <point x="69" y="71" type="curve"/>
      <point x="140" y="156" type="line"/>
      <point x="183" y="116"/>
      <point x="258" y="88"/>
      <point x="327" y="88" type="curve" smooth="yes"/>
      <point x="470" y="88"/>
      <point x="544" y="164"/>
      <point x="544" y="322" type="curve" smooth="yes"/>
      <point x="544" y="500" type="line"/>
    </contour>
    <contour>
      <point x="544" y="607" type="curve" smooth="yes"/>
      <point x="544" y="719"/>
      <point x="483" y="794"/>
      <point x="361" y="794" type="curve" smooth="yes"/>
      <point x="228" y="794"/>
      <point x="174" y="732"/>
      <point x="174" y="612" type="curve" smooth="yes"/>
      <point x="174" y="499"/>
      <point x="230" y="428"/>
      <point x="353" y="428" type="curve" smooth="yes"/>
      <point x="475" y="428"/>
      <point x="544" y="479"/>
    </contour>
  </outline>
</glyph>
<glyph name="colon" format="1">
  <advance width="164"/>
  <unicode hex="003A"/>
  <outline>
    <contour>
      <point x="35" y="604" type="curve" smooth="yes"/>
      <point x="35" y="633"/>
      <point x="53" y="651"/>
      <point x="82" y="651" type="curve" smooth="yes"/>
      <point x="111" y="651"/>
      <point x="129" y="633"/>
      <point x="129" y="604" type="curve" smooth="yes"/>
      <point x="129" y="575"/>
      <point x="111" y="557"/>
      <point x="82" y="557" type="curve" smooth="yes"/>
      <point x="53" y="557"/>
      <point x="35" y="575"/>
    </contour>
    <contour>
      <point x="35" y="47" type="curve" smooth="yes"/>
      <point x="35" y="76"/>
      <point x="53" y="94"/>
      <point x="82" y="94" type="curve" smooth="yes"/>
      <point x="111" y="94"/>
      <point x="129" y="76"/>
      <point x="129" y="47" type="curve" smooth="yes"/>
      <point x="129" y="18"/>
      <point x="111" y="0"/>
      <point x="82" y="0" type="curve" smooth="yes"/>
      <point x="53" y="0"/>
      <point x="35" y="18"/>
    </contour>
  </outline>
</glyph>
<glyph name="A" format="1">
  <advance width="812"/>
  <unicode hex="0041"/>
  <outline>
    <contour>
      <point x="456" y="861" type="line"/>
      <point x="350" y="861" type="line"/>
      <point x="528" y="361" type="line"/>
      <point x="585" y="404" type="line"/>
      <point x="221" y="404" type="line"/>
      <point x="286" y="365" type="line"/>
    </contour>
    <contour>
      <point x="22" y="0" type="line"/>
      <point x="156" y="0" type="line"/>
      <point x="281" y="357" type="line"/>
      <point x="203" y="316" type="line"/>
      <point x="604" y="316" type="line"/>
      <point x="532" y="351" type="line"/>
      <point x="662" y="0" type="line"/>
      <point x="790" y="0" type="line"/>
      <point x="462" y="880" type="line"/>
      <point x="342" y="880" type="line"/>
    </contour>
  </outline>
</glyph>
<glyph name="B" format="1">
  <advance width="856"/>
  <unicode hex="0042"/>
  <outline>
    <contour>
      <point x="114" y="0" type="line"/>
      <point x="491" y="0" type="line" smooth="yes"/>
      <point x="683" y="0"/>
      <point x="804" y="82"/>
      <point x="804" y="254" type="curve" smooth="yes"/>
      <point x="804" y="420"/>
      <point x="710" y="470"/>
      <point x="573" y="491" type="curve"/>
      <point x="573" y="466" type="line"/>
      <point x="692" y="481"/>
      <point x="772" y="539"/>
      <point x="772" y="660" type="curve" smooth="yes"/>
      <point x="772" y="819"/>
      <point x="660" y="880"/>
      <point x="490" y="880" type="curve" smooth="yes"/>
      <point x="114" y="880" type="line"/>
    </contour>
    <contour>
      <point x="465" y="414" type="line" smooth="yes"/>
      <point x="598" y="414"/>
      <point x="665" y="401"/>
      <point x="665" y="254" type="curve" smooth="yes"/>
      <point x="665" y="142"/>
      <point x="596" y="101"/>
      <point x="465" y="101" type="curve" smooth="yes"/>
      <point x="196" y="101" type="line"/>
      <point x="252" y="16" type="line"/>
      <point x="252" y="469" type="line"/>
      <point x="191" y="414" type="line"/>
    </contour>
    <contour>
      <point x="440" y="780" type="line" smooth="yes"/>
      <point x="555" y="780"/>
      <point x="640" y="775"/>
      <point x="640" y="655" type="curve" smooth="yes"/>
      <point x="640" y="536"/>
      <point x="573" y="520"/>
      <point x="459" y="520" type="curve" smooth="yes"/>
      <point x="189" y="520" type="line"/>
      <point x="252" y="477" type="line"/>
      <point x="252" y="847" type="line"/>
      <point x="196" y="780" type="line"/>
    </contour>
  </outline>
</glyph>
<glyph name="D" format="1">
  <advance width="932"/>
  <unicode hex="0044"/>
  <outline>
    <contour>
      <point x="114" y="0" type="line"/>
      <point x="114" y="880" type="line"/>
      <point x="386" y="880" type="line" smooth="yes"/>
      <point x="640" y="880"/>
      <point x="870" y="792"/>
      <point x="870" y="441" type="curve" smooth="yes"/>
      <point x="870" y="85"/>
      <point x="640" y="0"/>
      <point x="386" y="0" type="curve" smooth="yes"/>
    </contour>
    <contour>
      <point x="252" y="853" type="line"/>
      <point x="252" y="26" type="line"/>
      <point x="188" y="101" type="line"/>
      <point x="375" y="101" type="line" smooth="yes"/>
      <point x="568" y="101"/>
      <point x="731" y="144"/>
      <point x="731" y="441" type="curve" smooth="yes"/>
      <point x="731" y="739"/>
      <point x="568" y="780"/>
      <point x="375" y="780" type="curve" smooth="yes"/>
      <point x="189" y="780" type="line"/>
    </contour>
  </outline>
</glyph>
<glyph name="G" format="1">
  <advance width="954.0"/>
  <unicode hex="0047"/>
  <outline>
    <contour>
      <point x="734" y="666" type="line"/>
      <point x="681" y="757"/>
      <point x="615" y="794"/>
      <point x="503" y="794" type="curve" smooth="yes"/>
      <point x="313" y="794"/>
      <point x="204.0" y="669.0"/>
      <point x="204.0" y="440.0" type="curve" smooth="yes"/>
      <point x="204.0" y="205.0"/>
      <point x="306.0" y="86"/>
      <point x="484.0" y="86.0" type="curve" smooth="yes"/>
      <point x="610.0" y="86"/>
      <point x="673.0" y="127"/>
      <point x="722.0" y="206" type="curve" smooth="yes"/>
      <point x="757.0" y="262"/>
      <point x="760" y="348"/>
      <point x="760" y="394" type="curve"/>
      <point x="845.0" y="356" type="line"/>
      <point x="569.0" y="356" type="line"/>
      <point x="569.0" y="451" type="line"/>
      <point x="880.0" y="451" type="line"/>
      <point x="880.0" y="0.0" type="line"/>
      <point x="809.0" y="0" type="line"/>
      <point x="773.0" y="302" type="line"/>
      <point x="838.0" y="309" type="line"/>
      <point x="838.0" y="130"/>
      <point x="733.0" y="-20"/>
      <point x="479.0" y="-20.0" type="curve" smooth="yes"/>
      <point x="195.0" y="-20"/>
      <point x="62" y="173"/>
      <point x="62" y="440" type="curve" smooth="yes"/>
      <point x="62" y="707"/>
      <point x="202" y="900"/>
      <point x="503" y="900" type="curve" smooth="yes"/>
      <point x="689" y="900"/>
      <point x="798" y="818"/>
      <point x="853" y="712" type="curve"/>
    </contour>
  </outline>
</glyph>
<glyph name="H" format="1">
  <advance width="933"/>
  <unicode hex="0048"/>
  <outline>
    <contour>
      <point x="819" y="0" type="line"/>
      <point x="681" y="0" type="line"/>
      <point x="681" y="450" type="line"/>
      <point x="768" y="405" type="line"/>
      <point x="166" y="405" type="line"/>
      <point x="252" y="450" type="line"/>
      <point x="252" y="0" type="line"/>
      <point x="114" y="0" type="line"/>
      <point x="114" y="880" type="line"/>
      <point x="252" y="880" type="line"/>
      <point x="252" y="463" type="line"/>
      <point x="167" y="510" type="line"/>
      <point x="767" y="510" type="line"/>
      <point x="681" y="463" type="line"/>
      <point x="681" y="880" type="line"/>
      <point x="819" y="880" type="line"/>
    </contour>
  </outline>
</glyph>
<glyph name="J" format="1">
  <advance width="750"/>
  <unicode hex="004A"/>
  <outline>
    <contour>
      <point x="636" y="880" type="line"/>
      <point x="636" y="302" type="line" smooth="yes"/>
      <point x="636" y="58"/>
      <point x="510" y="-20"/>
      <point x="302" y="-20" type="curve" smooth="yes"/>
      <point x="137" y="-20"/>
      <point x="37" y="71"/>
      <point x="4" y="196" type="curve"/>
      <point x="116" y="244" type="line"/>
      <point x="132" y="164"/>
      <point x="189" y="87"/>
      <point x="308" y="87" type="curve" smooth="yes"/>
      <point x="435" y="87"/>
      <point x="498" y="137"/>
      <point x="498" y="289" type="curve" smooth="yes"/>
      <point x="498" y="880" type="line"/>
    </contour>
  </outline>
</glyph>
<glyph name="K" format="1">
  <advance width="845"/>
  <unicode hex="004B"/>
  <outline>
    <contour>
      <point x="252" y="0" type="line"/>
      <point x="252" y="388" type="line"/>
      <point x="208" y="273" type="line"/>
      <point x="396" y="461" type="line"/>
      <point x="330" y="461" type="line"/>
      <point x="655" y="0" type="line"/>
      <point x="829" y="0" type="line"/>
      <point x="430" y="559" type="line"/>
      <point x="433" y="474" type="line"/>
      <point x="829" y="880" type="line"/>
      <point x="647" y="880" type="line"/>
      <point x="200" y="419" type="line"/>
      <point x="252" y="414" type="line"/>
      <point x="252" y="880" type="line"/>
      <point x="114" y="880" type="line"/>
      <point x="114" y="0" type="line"/>
    </contour>
  </outline>
</glyph>
<glyph name="L" format="1">
  <advance width="680"/>
  <unicode hex="004C"/>
  <outline>
    <contour>
      <point x="114" y="0" type="line"/>
      <point x="114" y="880" type="line"/>
      <point x="252" y="880" type="line"/>
      <point x="252" y="56" type="line"/>
      <point x="174" y="118" type="line"/>
      <point x="676" y="118" type="line"/>
      <point x="676" y="0" type="line"/>
    </contour>
  </outline>
</glyph>
<glyph name="N" format="1">
  <advance width="967"/>
  <unicode hex="004E"/>
  <outline>
    <contour>
      <point x="114" y="0" type="line"/>
      <point x="114" y="880" type="line"/>
      <point x="250" y="880" type="line"/>
      <point x="771" y="137" type="line"/>
      <point x="727" y="125" type="line"/>
      <point x="727" y="880" type="line"/>
      <point x="853" y="880" type="line"/>
      <point x="853" y="0" type="line"/>
      <point x="719" y="0" type="line"/>
      <point x="194" y="751" type="line"/>
      <point x="240" y="761" type="line"/>
      <point x="240" y="0" type="line"/>
    </contour>
  </outline>
</glyph>
<glyph name="P" format="1">
  <advance width="792"/>
  <unicode hex="0050"/>
  <outline>
    <contour>
      <point x="435" y="780" type="line" smooth="yes"/>
      <point x="569" y="780"/>
      <point x="626" y="761"/>
      <point x="628" y="658" type="curve" smooth="yes"/>
      <point x="630" y="544"/>
      <point x="588" y="512"/>
      <point x="432" y="512" type="curve" smooth="yes"/>
      <point x="204" y="512" type="line"/>
      <point x="252" y="454" type="line"/>
      <point x="252" y="858" type="line"/>
      <point x="204" y="780" type="line"/>
    </contour>
    <contour>
      <point x="453" y="406" type="line" smooth="yes"/>
      <point x="706" y="406"/>
      <point x="760" y="520"/>
      <point x="760" y="658" type="curve" smooth="yes"/>
      <point x="760" y="817"/>
      <point x="653" y="880"/>
      <point x="462" y="880" type="curve" smooth="yes"/>
      <point x="114" y="880" type="line"/>
      <point x="114" y="0" type="line"/>
      <point x="252" y="0" type="line"/>
      <point x="252" y="449" type="line"/>
      <point x="203" y="406" type="line"/>
    </contour>
  </outline>
</glyph>
<glyph name="S" format="1">
  <advance width="747"/>
  <unicode hex="0053"/>
  <outline>
    <contour>
      <point x="376.0" y="-20.0" type="curve" smooth="yes"/>
      <point x="270.0" y="-20.0"/>
      <point x="105" y="-20"/>
      <point x="50" y="128" type="curve"/>
      <point x="128.0" y="207.0" type="line"/>
      <point x="156" y="132"/>
      <point x="223" y="86"/>
      <point x="360" y="86" type="curve" smooth="yes"/>
      <point x="509" y="86"/>
      <point x="572" y="136"/>
      <point x="572" y="235" type="curve" smooth="yes"/>
      <point x="572" y="351"/>
      <point x="546" y="392"/>
      <point x="363" y="395" type="curve" smooth="yes"/>
      <point x="152" y="398"/>
      <point x="60" y="472"/>
      <point x="60" y="657" type="curve" smooth="yes"/>
      <point x="60" y="851"/>
      <point x="223" y="900"/>
      <point x="385.0" y="900.0" type="curve" smooth="yes"/>
      <point x="544" y="900"/>
      <point x="624" y="873"/>
      <point x="683" y="753" type="curve"/>
      <point x="597" y="689" type="line"/>
      <point x="538" y="795"/>
      <point x="452" y="794"/>
      <point x="398.0" y="794.0" type="curve" smooth="yes"/>
      <point x="276" y="794"/>
      <point x="187" y="774"/>
      <point x="187" y="659" type="curve" smooth="yes"/>
      <point x="187" y="558"/>
      <point x="218" y="515"/>
      <point x="392" y="512" type="curve" smooth="yes"/>
      <point x="617" y="508"/>
      <point x="695" y="426"/>
      <point x="695" y="239" type="curve" smooth="yes"/>
      <point x="695" y="72"/>
      <point x="577.0" y="-20.0"/>
    </contour>
  </outline>
</glyph>
<glyph name="T" format="1">
  <advance width="694"/>
  <unicode hex="0054"/>
  <outline>
    <contour>
      <point x="34" y="776" type="line"/>
      <point x="34" y="880" type="line"/>
      <point x="660" y="880" type="line"/>
      <point x="660" y="776" type="line"/>
      <point x="352" y="776" type="line"/>
      <point x="416" y="855" type="line"/>
      <point x="416" y="0" type="line"/>
      <point x="278" y="0" type="line"/>
      <point x="278" y="858" type="line"/>
      <point x="338" y="776" type="line"/>
    </contour>
  </outline>
</glyph>
<glyph name="V" format="1">
  <advance width="738"/>
  <unicode hex="0056"/>
  <outline>
    <contour>
      <point x="0" y="880" type="curve"/>
      <point x="134" y="880" type="line"/>
      <point x="410" y="113" type="line" smooth="yes"/>
      <point x="335" y="69" type="line"/>
      <point x="606" y="880" type="line"/>
      <point x="738" y="880" type="line"/>
      <point x="433" y="0" type="line"/>
      <point x="314" y="0" type="line" smooth="yes"/>
      <point x="313" y="0"/>
      <point x="0" y="880"/>
    </contour>
  </outline>
</glyph>
<glyph name="X" format="1">
  <advance width="766"/>
  <unicode hex="0058"/>
  <outline>
    <contour>
      <point x="24" y="880" type="line"/>
      <point x="167" y="880" type="line"/>
      <point x="745" y="0" type="line"/>
      <point x="602" y="0" type="line"/>
    </contour>
    <contour>
      <point x="366" y="498" type="line"/>
      <point x="590" y="880" type="line"/>
      <point x="724" y="880" type="line"/>
      <point x="460" y="426" type="line"/>
      <point x="413" y="404" type="line"/>
      <point x="162" y="0" type="line"/>
      <point x="21" y="0" type="line"/>
      <point x="316" y="472" type="line"/>
    </contour>
  </outline>
</glyph>
<glyph name="a" format="1">
  <advance width="661"/>
  <unicode hex="0061"/>
  <outline>
    <contour>
      <point x="263" y="-20" type="curve" smooth="yes"/>
      <point x="394" y="-20"/>
      <point x="456" y="51"/>
      <point x="485" y="87" type="curve"/>
      <point x="455" y="91" type="line"/>
      <point x="494" y="0" type="line"/>
      <point x="587" y="0" type="line"/>
      <point x="587" y="441" type="line" smooth="yes"/>
      <point x="587" y="578"/>
      <point x="461" y="631"/>
      <point x="324" y="631" type="curve" smooth="yes"/>
      <point x="225" y="631"/>
      <point x="129" y="604"/>
      <point x="76" y="560" type="curve"/>
      <point x="125" y="470" type="line"/>
      <point x="180" y="504"/>
      <point x="253" y="524"/>
      <point x="320" y="524" type="curve" smooth="yes"/>
      <point x="398" y="524"/>
      <point x="455" y="497"/>
      <point x="455" y="434" type="curve" smooth="yes"/>
      <point x="455" y="339" type="line"/>
      <point x="491" y="356" type="line"/>
      <point x="291" y="356" type="line" smooth="yes"/>
      <point x="148" y="356"/>
      <point x="59" y="316"/>
      <point x="59" y="182" type="curve" smooth="yes"/>
      <point x="59" y="55"/>
      <point x="151" y="-20"/>
    </contour>
    <contour>
      <point x="300" y="77" type="curve" smooth="yes"/>
      <point x="235" y="77"/>
      <point x="183" y="109"/>
      <point x="183" y="183" type="curve" smooth="yes"/>
      <point x="183" y="258"/>
      <point x="233" y="272"/>
      <point x="318" y="272" type="curve" smooth="yes"/>
      <point x="481" y="272" type="line"/>
      <point x="455" y="327" type="line"/>
      <point x="455" y="106" type="line"/>
      <point x="479" y="159" type="line"/>
      <point x="443" y="120"/>
      <point x="363" y="77"/>
    </contour>
  </outline>
</glyph>
<glyph name="b" format="1">
  <advance width="735"/>
  <unicode hex="0062"/>
  <outline>
    <contour>
      <point x="393" y="-19" type="curve" smooth="yes"/>
      <point x="585" y="-19"/>
      <point x="683" y="109"/>
      <point x="683" y="306" type="curve" smooth="yes"/>
      <point x="683" y="505"/>
      <point x="592" y="631"/>
      <point x="404" y="631" type="curve" smooth="yes"/>
      <point x="270" y="631"/>
      <point x="195" y="539"/>
      <point x="182" y="483" type="curve"/>
      <point x="211" y="489" type="line"/>
      <point x="211" y="880" type="line"/>
      <point x="77" y="880" type="line"/>
      <point x="77" y="0" type="line"/>
      <point x="181" y="0" type="line"/>
      <point x="211" y="128" type="line"/>
      <point x="178" y="122" type="line"/>
      <point x="214" y="24"/>
      <point x="296" y="-19"/>
    </contour>
    <contour>
      <point x="387" y="86" type="curve" smooth="yes"/>
      <point x="275" y="86"/>
      <point x="211" y="145"/>
      <point x="211" y="307" type="curve"/>
      <point x="211" y="457"/>
      <point x="274" y="528"/>
      <point x="383" y="528" type="curve" smooth="yes"/>
      <point x="504" y="528"/>
      <point x="554" y="452"/>
      <point x="554" y="307" type="curve" smooth="yes"/>
      <point x="554" y="163"/>
      <point x="502" y="86"/>
    </contour>
  </outline>
</glyph>
<glyph name="e" format="1">
  <advance width="676"/>
  <unicode hex="0065"/>
  <outline>
    <contour>
      <point x="364" y="-18" type="curve" smooth="yes"/>
      <point x="475" y="-18"/>
      <point x="548" y="15"/>
      <point x="614" y="89" type="curve"/>
      <point x="553" y="164" type="line"/>
      <point x="508" y="119"/>
      <point x="454" y="88"/>
      <point x="372" y="88" type="curve" smooth="yes"/>
      <point x="266" y="88"/>
      <point x="186" y="150"/>
      <point x="186" y="305" type="curve"/>
      <point x="101" y="271" type="line"/>
      <point x="630" y="271" type="line"/>
      <point x="630" y="307" type="line" smooth="yes"/>
      <point x="630" y="490"/>
      <point x="552" y="631"/>
      <point x="353" y="631" type="curve" smooth="yes"/>
      <point x="155" y="631"/>
      <point x="52" y="506"/>
      <point x="52" y="307" type="curve" smooth="yes"/>
      <point x="52" y="85"/>
      <point x="198" y="-18"/>
    </contour>
    <contour>
      <point x="503" y="312" type="curve"/>
      <point x="592" y="365" type="line"/>
      <point x="99" y="365" type="line"/>
      <point x="187" y="320" type="line"/>
      <point x="187" y="476"/>
      <point x="259" y="531"/>
      <point x="353" y="531" type="curve" smooth="yes"/>
      <point x="472" y="531"/>
      <point x="503" y="427"/>
    </contour>
  </outline>
</glyph>
<glyph name="g" format="1">
  <advance width="737"/>
  <unicode hex="0067"/>
  <outline>
    <contour>
      <point x="525" y="317" type="curve" smooth="yes"/>
      <point x="525" y="449"/>
      <point x="468" y="525"/>
      <point x="351" y="525" type="curve" smooth="yes"/>
      <point x="215" y="525"/>
      <point x="181" y="424"/>
      <point x="181" y="317" type="curve" smooth="yes"/>
      <point x="181" y="173"/>
      <point x="238" y="104"/>
      <point x="351" y="104" type="curve" smooth="yes"/>
      <point x="475" y="104"/>
      <point x="525" y="182"/>
    </contour>
    <contour>
      <point x="347" y="631" type="curve" smooth="yes"/>
      <point x="454" y="631"/>
      <point x="521" y="579"/>
      <point x="544" y="513" type="curve"/>
      <point x="523" y="504" type="line"/>
      <point x="552" y="612" type="line"/>
      <point x="656" y="612" type="line"/>
      <point x="656" y="32" type="line" smooth="yes"/>
      <point x="656" y="-152"/>
      <point x="564" y="-280"/>
      <point x="351" y="-280" type="curve" smooth="yes"/>
      <point x="255" y="-280"/>
      <point x="163" y="-249"/>
      <point x="112" y="-210" type="curve"/>
      <point x="142" y="-111" type="line"/>
      <point x="173" y="-131"/>
      <point x="246" y="-172"/>
      <point x="344" y="-172" type="curve" smooth="yes"/>
      <point x="467" y="-172"/>
      <point x="525" y="-112"/>
      <point x="525" y="32" type="curve" smooth="yes"/>
      <point x="525" y="187" type="line"/>
      <point x="578" y="212" type="line"/>
      <point x="574" y="112"/>
      <point x="497" y="0"/>
      <point x="341" y="0" type="curve" smooth="yes"/>
      <point x="188" y="0"/>
      <point x="52" y="86"/>
      <point x="52" y="317" type="curve" smooth="yes"/>
      <point x="52" y="543"/>
      <point x="178" y="631"/>
    </contour>
  </outline>
</glyph>
<glyph name="h" format="1">
  <advance width="704"/>
  <unicode hex="0068"/>
  <outline>
    <contour>
      <point x="209" y="0" type="line"/>
      <point x="77" y="0" type="line"/>
      <point x="77" y="880" type="line"/>
      <point x="209" y="880" type="line"/>
    </contour>
    <component base="n"/>
  </outline>
</glyph>
<glyph name="i" format="1">
  <advance width="301"/>
  <unicode hex="0069"/>
  <outline>
    <contour>
      <point x="80" y="766" type="curve" smooth="yes"/>
      <point x="80" y="811"/>
      <point x="108" y="839"/>
      <point x="158" y="839" type="curve" smooth="yes"/>
      <point x="209" y="839"/>
      <point x="237" y="811"/>
      <point x="237" y="766" type="curve" smooth="yes"/>
      <point x="237" y="718"/>
      <point x="209" y="691"/>
      <point x="158" y="691" type="curve" smooth="yes"/>
      <point x="108" y="691"/>
      <point x="80" y="718"/>
    </contour>
    <contour>
      <point x="92" y="0" type="line"/>
      <point x="92" y="612" type="line"/>
      <point x="224" y="612" type="line"/>
      <point x="224" y="0" type="line"/>
    </contour>
  </outline>
</glyph>
<glyph name="l" format="1">
  <advance width="316.0"/>
  <unicode hex="006C"/>
  <outline>
    <contour>
      <point x="92.0" y="0.0" type="line"/>
      <point x="92.0" y="880.0" type="line"/>
      <point x="224.0" y="880.0" type="line"/>
      <point x="224.0" y="0.0" type="line"/>
    </contour>
  </outline>
</glyph>
<glyph name="o" format="1">
  <advance width="696.0"/>
  <unicode hex="006F"/>
  <outline>
    <contour>
      <point x="347.0" y="631" type="curve" smooth="yes"/>
      <point x="553.0" y="631"/>
      <point x="644" y="492"/>
      <point x="644.0" y="307" type="curve" smooth="yes"/>
      <point x="644" y="122"/>
      <point x="553.0" y="-19"/>
      <point x="347.0" y="-19" type="curve" smooth="yes"/>
      <point x="139.0" y="-19"/>
      <point x="52" y="124"/>
      <point x="52.0" y="307" type="curve" smooth="yes"/>
      <point x="52" y="489"/>
      <point x="140.0" y="631"/>
    </contour>
    <contour>
      <point x="348.0" y="528" type="curve" smooth="yes"/>
      <point x="232.0" y="528"/>
      <point x="186" y="434"/>
      <point x="186.0" y="308" type="curve" smooth="yes"/>
      <point x="186" y="182"/>
      <point x="231.0" y="87"/>
      <point x="348.0" y="87" type="curve" smooth="yes"/>
      <point x="468.0" y="87"/>
      <point x="510" y="182"/>
      <point x="510.0" y="308" type="curve" smooth="yes"/>
      <point x="510" y="433"/>
      <point x="467.0" y="528"/>
    </contour>
  </outline>
</glyph>
<glyph name="p" format="1">
  <advance width="733.0"/>
  <unicode hex="0070"/>
  <outline>
    <contour>
      <point x="195.0" y="104" type="line"/>
      <point x="210.0" y="40"/>
      <point x="288.0" y="-19"/>
      <point x="400.0" y="-19" type="curve" smooth="yes"/>
      <point x="589.0" y="-19"/>
      <point x="681.0" y="108"/>
      <point x="681.0" y="307" type="curve" smooth="yes"/>
      <point x="681.0" y="504"/>
      <point x="588.0" y="631"/>
      <point x="404.0" y="631" type="curve" smooth="yes"/>
      <point x="318.0" y="631"/>
      <point x="219.0" y="588"/>
      <point x="198.0" y="503" type="curve"/>
      <point x="208.0" y="503" type="line"/>
      <point x="195.0" y="612" type="line"/>
      <point x="77.0" y="612.0" type="line"/>
      <point x="77.0" y="-245.0" type="line"/>
      <point x="208.0" y="-245" type="line"/>
      <point x="208.0" y="112" type="line"/>
    </contour>
    <contour>
      <point x="208.0" y="306" type="curve"/>
      <point x="208.0" y="451"/>
      <point x="265.0" y="528"/>
      <point x="381.0" y="528" type="curve" smooth="yes"/>
      <point x="495.0" y="528"/>
      <point x="552.0" y="461"/>
      <point x="552.0" y="307" type="curve" smooth="yes"/>
      <point x="552.0" y="153"/>
      <point x="491.0" y="87"/>
      <point x="388.0" y="87" type="curve" smooth="yes"/>
      <point x="263.0" y="87"/>
      <point x="208.0" y="157"/>
    </contour>
  </outline>
</glyph>
<glyph name="r" format="1">
  <advance width="447"/>
  <unicode hex="0072"/>
  <outline>
    <contour>
      <point x="131" y="455" type="line"/>
      <point x="220" y="589"/>
      <point x="316" y="631"/>
      <point x="413" y="631" type="curve"/>
      <point x="413" y="508" type="line"/>
      <point x="297" y="508"/>
      <point x="212" y="483"/>
      <point x="124" y="389" type="curve"/>
      <point x="211" y="510" type="line"/>
      <point x="211" y="0" type="line"/>
      <point x="77" y="0" type="line"/>
      <point x="77" y="612" type="line"/>
      <point x="202" y="612" type="line"/>
      <point x="211" y="533" type="line"/>
    </contour>
  </outline>
</glyph>
<glyph name="s" format="1">
  <advance width="599"/>
  <unicode hex="0073"/>
  <outline>
    <contour>
      <point x="135" y="155" type="line"/>
      <point x="168" y="90"/>
      <point x="232" y="86"/>
      <point x="303" y="86" type="curve" smooth="yes"/>
      <point x="403" y="86"/>
      <point x="441" y="113"/>
      <point x="441" y="170" type="curve" smooth="yes"/>
      <point x="441" y="243"/>
      <point x="403" y="258"/>
      <point x="272" y="258" type="curve" smooth="yes"/>
      <point x="103" y="258"/>
      <point x="46" y="326"/>
      <point x="46" y="450" type="curve" smooth="yes"/>
      <point x="46" y="565"/>
      <point x="143" y="631"/>
      <point x="304.0" y="631.0" type="curve" smooth="yes"/>
      <point x="416" y="631"/>
      <point x="503" y="622"/>
      <point x="545" y="530" type="curve"/>
      <point x="470" y="466" type="line"/>
      <point x="436" y="523"/>
      <point x="385" y="528"/>
      <point x="319" y="528" type="curve" smooth="yes"/>
      <point x="230" y="528"/>
      <point x="169" y="514"/>
      <point x="169" y="449" type="curve" smooth="yes"/>
      <point x="169" y="379"/>
      <point x="212" y="365"/>
      <point x="338" y="365" type="curve" smooth="yes"/>
      <point x="502" y="365"/>
      <point x="559" y="287"/>
      <point x="559" y="157" type="curve" smooth="yes"/>
      <point x="559" y="41"/>
      <point x="459.0" y="-19.0"/>
      <point x="302.0" y="-19.0" type="curve" smooth="yes"/>
      <point x="210.0" y="-19.0"/>
      <point x="92" y="-11"/>
      <point x="48" y="95" type="curve"/>
    </contour>
  </outline>
</glyph>
<glyph name="v" format="1">
  <advance width="586"/>
  <unicode hex="0076"/>
  <outline>
    <contour>
      <point x="6" y="612" type="line"/>
      <point x="139" y="612" type="line"/>
      <point x="341" y="74" type="line"/>
      <point x="257" y="62" type="line"/>
      <point x="453" y="612" type="line"/>
      <point x="580" y="612" type="line"/>
      <point x="349" y="0" type="line"/>
      <point x="244" y="0" type="line"/>
    </contour>
  </outline>
</glyph>
<glyph name="w" format="1">
  <advance width="976"/>
  <unicode hex="0077"/>
  <outline>
    <contour>
      <point x="321" y="0" type="line"/>
      <point x="529" y="536" type="line"/>
      <point x="451" y="536" type="line"/>
      <point x="667" y="0" type="line"/>
      <point x="773" y="0" type="line"/>
      <point x="964" y="612" type="line"/>
      <point x="842" y="612" type="line"/>
      <point x="673" y="63" type="line"/>
      <point x="756" y="63" type="line"/>
      <point x="541" y="612" type="line"/>
      <point x="441" y="612" type="line"/>
      <point x="229" y="63" type="line"/>
      <point x="306" y="63" type="line"/>
      <point x="140" y="612" type="line"/>
      <point x="12" y="612" type="line"/>
      <point x="206" y="0" type="line"/>
    </contour>
  </outline>
</glyph>
